# xmcd
#
# Track frame offsets:
#	150
#	16922
#	28740
#	42177
#	58278
#	73745
#	88465
#	101107
#	115410
#	130663
#	146163
#	163203
#	179993
#	195481
#
# Disc length: 2800 seconds
# Revision: 4
# Processed by: cddbd v1.5.2PL0 Copyright (c) Steve Scherf et al.
# Submitted via: dBpowerAMP V12.0
#
DISCID=db0aee0e
DTITLE=Thomas Rhett - Life Changes
DYEAR=2017
DGENRE=Country
TTITLE0=Craving You
TTITLE1=Unforgettable
TTITLE2=Sixteen
TTITLE3=Drink A Beer
TTITLE4=Marry Me
TTITLE5=Leave Right Now
TTITLE6=Smooth Like The Summer
TTITLE7=Life Changes
TTITLE8=When You Look Like That
TTITLE9=Sweetheart
TTITLE10=Kiss Me Like A Stranger
TTITLE11=Renegades
TTITLE12=Gateway Love
TTITLE13=Grave
EXTD=
EXTT0=
EXTT1=
EXTT2=
EXTT3=
EXTT4=
EXTT5=
EXTT6=
EXTT7=
EXTT8=
EXTT9=
EXTT10=
EXTT11=
EXTT12=
EXTT13=
PLAYORDER=
